# xmcd
#
# Track frame offsets: 
#        150
#        19979
#        38109
#        56833
#        76475
#        97845
#        117278
#        137396
#        157970
#        177771
#        197245
#        217193
#        232455
#        246303
#        263439
#        284740
#        299881
#        321082
#        337795
#
# Disc length: 4778 seconds
#
# Revision: 0
# Processed by: cddbd v1.5.2PL0 Copyright (c) Steve Scherf et al.
# Submitted via: ExactAudioCopy v0.99pb3
#
DISCID=2212a813
DTITLE=Various Artist - On The Grind Vol #3
DYEAR=2008
DGENRE=Rap
TTITLE0=Gemini - Swagga So Mean
TTITLE1=Mica Swain - Dope Boy Magic
TTITLE2=King Of The City - Cuffin'
TTITLE3=Tigga Bounce - Tee'Zin
TTITLE4=N8 - Hey Pretty Lady
TTITLE5=Geddo - Where Dat Clap At?
TTITLE6=King Of The City - Beatin' Up The Block
TTITLE7=PMI - Gettin' Money
TTITLE8=Tuan G - Fast Lane
TTITLE9=Reno Geno - I Switch Cars
TTITLE10=King Of The City - Naptown
TTITLE11=Catalyst - Get Rich Get Fly
TTITLE12=BUN - My Momma Name
TTITLE13=C Loc - Look Good With Me
TTITLE14=King Of The City - A Game
TTITLE15=Daytona 5 Bill - Take Em' 2 Church
TTITLE16=Chase - Rhyme A Few Bars
TTITLE17=Mekka Don - What You Talkin' Bout
TTITLE18=Lyrical Predator - Higher Life
EXTD=
EXTT0=
EXTT1=
EXTT2=
EXTT3=
EXTT4=
EXTT5=
EXTT6=
EXTT7=
EXTT8=
EXTT9=
EXTT10=
EXTT11=
EXTT12=
EXTT13=
EXTT14=
EXTT15=
EXTT16=
EXTT17=
EXTT18=
PLAYORDER=
